<svg xmlns="http://www.w3.org/2000/svg" version="1.1" xmlns:xlink="http://www.w3.org/1999/xlink" xmlns:svgjs="http://svgjs.dev/svgjs" width="128" height="128" viewBox="0 0 128 128"><g transform="matrix(0.4517543859649123,0,0,0.4517543859649123,35.22810172488724,12.333870967741937)"><svg viewBox="0 0 87 155" data-background-color="#070017" preserveAspectRatio="xMidYMid meet" height="228" width="128" xmlns="http://www.w3.org/2000/svg" xmlns:xlink="http://www.w3.org/1999/xlink"><g id="tight-bounds" transform="matrix(1,0,0,1,-0.211212516297266,0.25)"><svg viewBox="0 0 87.42242503259453 154.5" height="154.5" width="87.42242503259453"><g><svg viewBox="0 0 87.42242503259453 154.5" height="154.5" width="87.42242503259453"><g><svg viewBox="0 0 87.42242503259453 154.5" height="154.5" width="87.42242503259453"><g id="textblocktransform"><svg viewBox="0 0 87.42242503259453 154.5" height="154.5" width="87.42242503259453" id="textblock"><g><svg viewBox="0 0 87.42242503259453 154.5" height="154.5" width="87.42242503259453"><g transform="matrix(1,0,0,1,0,0)"><svg width="87.42242503259453" viewBox="1.27 -35.84 21.19 37.45" height="154.5" data-palette-color="#206db3"><path d="M22.46-35.84L22.46-35.84Q22.22-32.86 22.27-29.91 22.31-26.95 22.22-24.02L22.22-24.02 16.8-24.22Q16.75-22.51 16.72-20.85 16.7-19.19 16.7-17.48L16.7-17.48Q16.7-15.43 16.72-13.45 16.75-11.47 16.8-9.42L16.8-9.42 21.78-9.33Q21.68-7.91 21.68-6.45 21.68-4.98 21.68-3.52L21.68-3.52Q21.68-2.29 21.75-1.07 21.83 0.15 22.07 1.32L22.07 1.32 4.54 1.61Q4.54-0.78 4.49-3.1 4.44-5.42 4.3-7.81L4.3-7.81 7.47-7.86Q7.23-12.45 6.91-16.94 6.59-21.44 6.25-25.98L6.25-25.98 1.61-26.56Q1.51-28.61 1.44-30.64 1.37-32.67 1.27-34.72L1.27-34.72Q6.59-34.91 11.84-35.18 17.09-35.45 22.46-35.84Z" opacity="1" transform="matrix(1,0,0,1,0,0)" fill="#206db3" class="wordmark-text-0" data-fill-palette-color="primary" id="text-0"></path></svg></g></svg></g></svg></g></svg></g></svg></g><defs></defs></svg><rect width="87.42242503259453" height="154.5" fill="none" stroke="none" visibility="hidden"></rect></g></svg></g></svg>